<?xml version="1.0" encoding="utf-8"?>
<!-- Generator: Adobe Illustrator 16.0.0, SVG Export Plug-In . SVG Version: 6.00 Build 0)  -->
<!DOCTYPE svg PUBLIC "-//W3C//DTD SVG 1.1//EN" "http://www.w3.org/Graphics/SVG/1.1/DTD/svg11.dtd">
<svg version="1.1" id="Layer_1" xmlns="http://www.w3.org/2000/svg" xmlns:xlink="http://www.w3.org/1999/xlink" x="0px" y="0px"
	 width="162.519px" height="140.069px" viewBox="0 0 162.519 140.069" enable-background="new 0 0 162.519 140.069"
	 xml:space="preserve">
<g>
	<path fill="#040000" d="M135.532,140.068c-1.152,0-2.305-0.439-3.182-1.318c-1.758-1.756-1.758-4.605,0-6.363
		c13.65-13.65,21.168-31.803,21.168-51.109c0-19.306-7.518-37.457-21.168-51.108C118.698,16.518,100.548,9,81.241,9
		s-37.457,7.518-51.11,21.169c-28.181,28.182-28.181,74.036,0,102.217c1.758,1.758,1.758,4.607,0,6.363
		c-1.756,1.758-4.607,1.758-6.363,0c-31.69-31.689-31.69-83.254,0-114.944C39.12,8.454,59.53,0,81.241,0s42.121,8.454,57.473,23.806
		c15.352,15.351,23.805,35.761,23.805,57.471c0,21.711-8.453,42.123-23.805,57.473C137.835,139.628,136.683,140.068,135.532,140.068
		z"/>
	<circle fill="#040000" cx="81.742" cy="44.966" r="9.513"/>
	<circle fill="#040000" cx="81.742" cy="82.812" r="9.513"/>
	<circle fill="#040000" cx="81.742" cy="120.66" r="9.513"/>
</g>
</svg>
