<?xml version="1.0" encoding="utf-8"?>
<!-- Generator: Adobe Illustrator 16.0.0, SVG Export Plug-In . SVG Version: 6.00 Build 0)  -->
<!DOCTYPE svg PUBLIC "-//W3C//DTD SVG 1.1//EN" "http://www.w3.org/Graphics/SVG/1.1/DTD/svg11.dtd">
<svg version="1.1" id="Layer_1" xmlns="http://www.w3.org/2000/svg" xmlns:xlink="http://www.w3.org/1999/xlink" x="0px" y="0px"
	 width="50px" height="43.084px" viewBox="0 0 50 43.084" enable-background="new 0 0 50 43.084" xml:space="preserve">
<g>
	<path d="M41.699,43.083c-0.354,0-0.708-0.135-0.979-0.405c-0.541-0.54-0.541-1.417,0-1.957c4.198-4.199,6.512-9.782,6.512-15.721
		s-2.313-11.521-6.512-15.721C36.521,5.081,30.938,2.769,25,2.769S13.479,5.081,9.28,9.279C5.081,13.479,2.769,19.062,2.769,25
		S5.081,36.521,9.28,40.721c0.541,0.54,0.541,1.417,0,1.957c-0.541,0.541-1.417,0.541-1.958,0C2.601,37.956,0,31.678,0,25
		S2.601,12.044,7.322,7.322C12.044,2.601,18.322,0,25,0s12.956,2.601,17.678,7.322S50,18.322,50,25s-2.601,12.956-7.322,17.678
		C42.407,42.948,42.054,43.083,41.699,43.083z"/>
	<path d="M39.452,40.53l-1.175-3.789c-0.841-2.956-2.483-5.681-4.627-7.675c-0.801-0.745-1.657-1.374-2.557-1.886
		c2.612-1.894,4.316-4.968,4.316-8.434c0-5.74-4.67-10.41-10.41-10.41s-10.41,4.67-10.41,10.41c0,3.475,1.713,6.555,4.336,8.446
		c-0.907,0.522-1.772,1.165-2.581,1.927c-2.133,2.009-3.772,4.742-4.616,7.698l-1.178,3.703c-0.206,0.647,0.152,1.34,0.8,1.545
		c0.124,0.04,0.25,0.059,0.373,0.059c0.521,0,1.006-0.334,1.172-0.857l0.118-0.373l1.065-3.349l0.011-0.035
		c1.382-4.857,4.459-7.726,7.622-8.889c1.108-0.407,2.228-0.606,3.288-0.606c1.06,0,2.177,0.201,3.283,0.608
		c0.006-0.002,0.012-0.004,0.018-0.006c3.169,1.153,6.245,3.997,7.618,8.823l1.07,3.453l0.113,0.364
		c0.201,0.649,0.89,1.012,1.539,0.811S39.653,41.179,39.452,40.53z M25,26.697c-4.383,0-7.949-3.566-7.949-7.95
		c0-4.383,3.566-7.949,7.949-7.949c4.384,0,7.95,3.566,7.95,7.949C32.95,23.131,29.384,26.697,25,26.697z"/>
</g>
</svg>
