<?xml version="1.0" encoding="utf-8"?>
<!-- Generator: Adobe Illustrator 16.0.0, SVG Export Plug-In . SVG Version: 6.00 Build 0)  -->
<!DOCTYPE svg PUBLIC "-//W3C//DTD SVG 1.1//EN" "http://www.w3.org/Graphics/SVG/1.1/DTD/svg11.dtd">
<svg version="1.1" id="Layer_1" xmlns="http://www.w3.org/2000/svg" xmlns:xlink="http://www.w3.org/1999/xlink" x="0px" y="0px"
	 width="85.856px" height="158.75px" viewBox="0 0 85.856 158.75" enable-background="new 0 0 85.856 158.75" xml:space="preserve">
<path fill="#040000" d="M10.002,158.75c-2.668,0-5.329-1.061-7.297-3.16c-3.777-4.029-3.573-10.358,0.456-14.135l60.139-56.38
	c1.649-1.546,2.557-3.57,2.557-5.7s-0.908-4.154-2.558-5.7L3.161,17.295C-0.869,13.519-1.073,7.189,2.705,3.16
	c3.777-4.028,10.107-4.233,14.135-0.455l60.138,56.38c5.727,5.367,8.879,12.573,8.879,20.29s-3.152,14.923-8.878,20.29
	l-60.139,56.38C14.91,157.854,12.453,158.75,10.002,158.75z"/>
</svg>
