<?xml version="1.0" encoding="utf-8"?>
<!-- Generator: Adobe Illustrator 16.0.0, SVG Export Plug-In . SVG Version: 6.00 Build 0)  -->
<!DOCTYPE svg PUBLIC "-//W3C//DTD SVG 1.1//EN" "http://www.w3.org/Graphics/SVG/1.1/DTD/svg11.dtd">
<svg version="1.1" id="Layer_1" xmlns="http://www.w3.org/2000/svg" xmlns:xlink="http://www.w3.org/1999/xlink" x="0px" y="0px"
	 width="85.856px" height="158.751px" viewBox="0 0 85.856 158.751" enable-background="new 0 0 85.856 158.751"
	 xml:space="preserve">
<path fill="#040000" d="M75.854,158.751c-2.451,0-4.908-0.896-6.837-2.705L8.878,99.666C3.153,94.299,0,87.093,0,79.376
	s3.153-14.923,8.878-20.29l60.139-56.38c4.028-3.779,10.357-3.574,14.134,0.455s3.574,10.358-0.455,14.135l-60.139,56.38
	c-1.649,1.547-2.557,3.57-2.557,5.7s0.908,4.153,2.557,5.7l60.139,56.38c4.029,3.776,4.232,10.105,0.455,14.135
	C81.184,157.69,78.522,158.751,75.854,158.751z"/>
</svg>
