<?xml version="1.0" encoding="utf-8"?>
<!-- Generator: Adobe Illustrator 16.0.0, SVG Export Plug-In . SVG Version: 6.00 Build 0)  -->
<!DOCTYPE svg PUBLIC "-//W3C//DTD SVG 1.1//EN" "http://www.w3.org/Graphics/SVG/1.1/DTD/svg11.dtd">
<svg version="1.1" id="Layer_1" xmlns="http://www.w3.org/2000/svg" xmlns:xlink="http://www.w3.org/1999/xlink" x="0px" y="0px"
	 width="158.75px" height="85.857px" viewBox="0 0 158.75 85.857" enable-background="new 0 0 158.75 85.857" xml:space="preserve">
<path fill="#040000" d="M158.75,75.855c0,2.668-1.061,5.328-3.16,7.297c-4.029,3.777-10.358,3.574-14.135-0.455l-56.38-60.139
	c-1.546-1.65-3.57-2.559-5.7-2.559s-4.154,0.908-5.7,2.559l-56.38,60.138C13.519,86.726,7.189,86.93,3.16,83.152
	c-4.028-3.777-4.233-10.106-0.455-14.135l56.38-60.139C64.452,3.154,71.658,0,79.375,0s14.923,3.154,20.29,8.879l56.38,60.139
	C157.854,70.947,158.75,73.404,158.75,75.855z"/>
</svg>
